<?xml version="1.0" standalone="no"?><!DOCTYPE svg PUBLIC "-//W3C//DTD SVG 1.1//EN" "http://www.w3.org/Graphics/SVG/1.1/DTD/svg11.dtd"><svg t="1677371998445" class="icon" viewBox="0 0 1024 1024" version="1.1" xmlns="http://www.w3.org/2000/svg" p-id="1994" width="200" height="200" xmlns:xlink="http://www.w3.org/1999/xlink"><path d="M953.6 548.266667c4.266667-4.266667 6.4-12.8 6.4-19.2l-42.666667-213.333334c-2.133333-10.666667-10.666667-17.066667-21.333333-17.066666H640c-10.666667 0-19.2 6.4-21.333333 17.066666l-42.666667 213.333334c-2.133333 6.4 0 14.933333 6.4 19.2l164.266667 164.266666V874.666667h-106.666667v42.666666h256v-42.666666h-106.666667v-162.133334l164.266667-164.266666zM878.933333 341.333333l17.066667 85.333334H640l17.066667-85.333334h221.866666z m-247.466666 128h273.066666l10.666667 57.6-147.2 147.2-147.2-147.2 10.666667-57.6zM590.933333 113.066667c-2.133333-4.266667-8.533333-6.4-14.933333-6.4H85.333333c-6.4 0-10.666667 2.133333-14.933333 6.4-4.266667 4.266667-6.4 10.666667-6.4 17.066666l64 768c0 10.666667 10.666667 19.2 21.333333 19.2h341.333334c10.666667 0 19.2-8.533333 21.333333-19.2l85.333333-768c0-6.4-2.133333-12.8-6.4-17.066666zM552.533333 149.333333l-14.933333 128H119.466667l-10.666667-128h443.733333z m-81.066666 725.333334H168.533333L123.733333 320H533.333333l-61.866666 554.666667z" p-id="1995" fill="#008c8c"></path></svg>